<?xml version="1.0"?>
<svg xmlns="http://www.w3.org/2000/svg" xmlns:xlink="http://www.w3.org/1999/xlink" xmlns:svgjs="http://svgjs.com/svgjs" version="1.1" width="512" height="512" x="0" y="0" viewBox="0 0 24 24" style="enable-background:new 0 0 512 512" xml:space="preserve" class=""><g><circle xmlns="http://www.w3.org/2000/svg" cx="7" cy="18" r="1" fill="#3e79f7" data-original="#000000" style="" class=""/><path xmlns="http://www.w3.org/2000/svg" d="m7.707 12.293c.391.391.391 1.023 0 1.414-.195.195-.451.293-.707.293s-.512-.098-.707-.293l-3-3c-.391-.391-.391-1.023 0-1.414l3-3c.391-.391 1.023-.391 1.414 0s.391 1.023 0 1.414l-2.293 2.293z" fill="#3e79f7" data-original="#000000" style="" class=""/><circle xmlns="http://www.w3.org/2000/svg" cx="12" cy="18" r="1" fill="#3e79f7" data-original="#000000" style="" class=""/><circle xmlns="http://www.w3.org/2000/svg" cx="17" cy="18" r="1" fill="#3e79f7" data-original="#000000" style="" class=""/><path xmlns="http://www.w3.org/2000/svg" d="m20.707 10.707-3 3c-.195.195-.451.293-.707.293s-.512-.098-.707-.293c-.391-.391-.391-1.023 0-1.414l2.293-2.293-2.293-2.293c-.391-.391-.391-1.023 0-1.414s1.023-.391 1.414 0l3 3c.391.391.391 1.023 0 1.414z" fill="#3e79f7" data-original="#000000" style="" class=""/><path xmlns="http://www.w3.org/2000/svg" d="m21 24h-18c-1.654 0-3-1.346-3-3v-18c0-1.654 1.346-3 3-3h18c1.654 0 3 1.346 3 3v18c0 1.654-1.346 3-3 3zm-18-22c-.552 0-1 .449-1 1v18c0 .551.448 1 1 1h18c.552 0 1-.449 1-1v-18c0-.551-.448-1-1-1z" fill="#3e79f7" data-original="#000000" style="" class=""/></g></svg>
